<?xml version="1.0" standalone="no"?>
<!DOCTYPE svg PUBLIC "-//W3C//DTD SVG 20010904//EN"
 "http://www.w3.org/TR/2001/REC-SVG-20010904/DTD/svg10.dtd">
<svg version="1.0" xmlns="http://www.w3.org/2000/svg"
 width="250.000000pt" height="250.000000pt" viewBox="0 0 250.000000 250.000000"
 preserveAspectRatio="xMidYMid meet">

<g transform="translate(0.000000,250.000000) scale(0.100000,-0.100000)"
fill="#000000" stroke="none">
<path d="M1628 1741 c-260 -83 -434 -377 -374 -633 69 -299 359 -493 631 -423
102 26 164 64 250 150 116 115 165 231 165 387 0 149 -53 273 -164 384 -110
110 -216 154 -365 153 -54 0 -107 -7 -143 -18z m151 -187 c60 -50 26 -144 -51
-144 -86 1 -117 106 -45 151 42 25 60 24 96 -7z m181 -89 c20 -25 8 -50 -25
-50 -21 0 -31 5 -33 18 -4 21 14 47 33 47 7 0 18 -7 25 -15z m-359 -34 c17
-13 23 -29 23 -56 0 -70 -79 -101 -129 -50 -30 30 -32 64 -4 99 25 32 75 35
110 7z m473 -134 c22 -16 18 -55 -6 -71 -40 -24 -80 44 -42 71 10 7 21 13 24
13 3 0 14 -6 24 -13z m-530 -78 c50 -40 21 -119 -44 -119 -65 0 -94 79 -44
119 15 12 34 21 44 21 10 0 29 -9 44 -21z m484 -125 c24 -17 29 -53 10 -72
-19 -19 -66 -15 -78 7 -14 28 -13 38 10 61 24 24 29 24 58 4z m-358 -76 c13
-25 13 -31 0 -55 -21 -38 -81 -45 -104 -11 -9 12 -16 29 -16 38 0 9 7 26 16
38 23 34 83 27 104 -10z m190 -38 c11 -11 20 -29 20 -40 0 -22 -33 -60 -53
-60 -52 0 -77 75 -35 104 30 21 44 20 68 -4z"/>
<path d="M535 1527 c-208 -69 -336 -252 -322 -459 10 -156 107 -298 252 -369
65 -32 76 -34 170 -34 97 0 104 2 177 38 177 87 282 280 251 460 -24 143 -119
269 -250 334 -64 32 -85 37 -156 40 -50 2 -98 -2 -122 -10z m135 -182 c19 -23
1 -99 -24 -103 -25 -5 -35 14 -29 57 9 57 29 75 53 46z m-94 -41 c19 -45 15
-69 -11 -69 -22 0 -60 68 -51 91 11 28 46 15 62 -22z m202 -16 c5 -26 -38 -78
-65 -78 -32 0 -30 36 4 72 29 31 56 33 61 6z m66 -85 c8 -21 -9 -37 -53 -52
-28 -9 -38 -9 -49 3 -18 18 -8 34 32 52 42 18 63 17 70 -3z m1 -104 c19 -19
-9 -44 -46 -41 -41 4 -64 24 -55 47 5 14 14 16 49 11 23 -4 46 -11 52 -17z
m-67 -82 c23 -21 29 -51 12 -62 -15 -9 -80 44 -80 65 0 34 27 33 68 -3z"/>
<path d="M1108 646 c-78 -28 -114 -51 -186 -120 -86 -83 -100 -168 -37 -231
43 -42 83 -49 190 -30 139 24 258 15 271 -20 3 -7 -6 -33 -20 -58 -14 -24 -26
-53 -26 -65 0 -60 91 -85 129 -36 24 31 27 92 7 139 -12 30 -12 30 28 45 47
18 86 69 86 112 0 79 -97 190 -224 253 -82 42 -124 44 -218 11z m146 -15 c18
-7 23 -15 19 -30 -7 -28 -69 -81 -93 -81 -24 0 -50 37 -50 72 0 22 6 29 28 34
15 3 32 7 37 9 18 6 34 5 59 -4z m166 -96 c18 -22 -5 -55 -40 -55 -39 0 -70
41 -70 91 l0 39 49 -30 c27 -17 54 -37 61 -45z m-325 45 c8 -26 -28 -78 -62
-86 -16 -4 -30 -1 -41 9 -14 15 -14 18 4 38 19 22 73 59 86 59 4 0 10 -9 13
-20z"/>
</g>
</svg>
